# xmcd CD database file
#
# Track frame offsets:
#	150
#	16667
#	33536
#	52648
#	69376
#	83987
#	98919
#	115981
#	159214
#	181717
#	201300
#	217212
#	235527
#	253432
#	272707
#	295525
#
# Disc length: 4216 seconds
#
# Revision: 3
# Processed by: cddbd v1.5.2PL0 Copyright (c) Steve Scherf et al.
# Submitted via: CDex 1.70beta2
#
DISCID=d6107610
DTITLE=Diverse - Verve Today 2010
DYEAR=2010
DGENRE=Jazz
TTITLE0=Hamel - March, April, May
TTITLE1=Térez Montcalm - Le Requin Danse
TTITLE2=Boby McFerrin - Say Ladeo (Radio Edit)
TTITLE3=David Sanborn - The Peeper
TTITLE4=Imelda May - It's Your Voodoo Working
TTITLE5=Trombone Shorty - Hurricane Season
TTITLE6=Ledisi - Knockin'
TTITLE7=Eivind Aarset and The Sonic Codex Orchestra - Dorbak Saray
TTITLE8=Dhafer Youssef - Sabaa Hayastan Dance
TTITLE9=Salif Keita - La Différence
TTITLE10=Dee Dee Bridgewater - Lady Sings The Blues
TTITLE11=Youssou N'Dour - Medina
TTITLE12=Solveig Slettahjell and Slow Motion Orchestra - Right As Rain
TTITLE13=José James and Jef Neve - Just Squeeze Me
TTITLE14=Rebekka Bakken - Powder Room Collapse
TTITLE15=Ryuichi Sakamoto - Riot In Lagos
EXTD=YEAR: 2010
EXTT0=
EXTT1=
EXTT2=
EXTT3=
EXTT4=
EXTT5=
EXTT6=
EXTT7=
EXTT8=
EXTT9=
EXTT10=
EXTT11=
EXTT12=
EXTT13=
EXTT14=
EXTT15=
PLAYORDER=
